<mxfile host="app.diagrams.net" modified="2023-09-04T19:07:38.041Z" agent="Mozilla/5.0 (Windows NT 10.0; Win64; x64) AppleWebKit/537.36 (KHTML, like Gecko) Chrome/116.0.0.0 Safari/537.36" version="21.7.2" etag="hRmi5Fvl7zHUVTpbMxvj" type="github">
  <diagram name="Страница — 1" id="EaKQR2U1CUA5UNieuZh2">
    <mxGraphModel>
      <root>
        <mxCell id="0" />
        <mxCell id="1" parent="0" />
      </root>
    </mxGraphModel>
  </diagram>
</mxfile>
